<svg xmlns="http://www.w3.org/2000/svg" preserveAspectRatio="xMidYMid meet" viewBox="224.69205741626794 219.136 573.7143732057416 573.9691812080537" version="1.0" style="max-height: 500px" width="574" height="574">

<g stroke="none" fill="#ffb900" transform="translate(0.000000,1024.000000) scale(0.100000,-0.100000)">
<path d="M2768 7420 c-47 -14 -85 -48 -102 -90 -21 -52 -20 -85 3 -135 20 -42&#10;40 -66 501 -581 163 -181 334 -372 380 -424 194 -219 405 -442 426 -452 12 -6&#10;34 -8 47 -4 15 3 111 100 248 248 123 133 314 338 424 456 198 212 235 255&#10;235 280 0 6 -57 74 -127 150 -408 441 -462 490 -595 535 -62 21 -76 22 -738&#10;24 -371 1 -687 -2 -702 -7z"/>
<path d="M6075 7415 c-175 -38 -203 -62 -745 -660 -85 -94 -303 -332 -485&#10;-530 -181 -197 -447 -488 -590 -645 -142 -157 -332 -365 -422 -463 -175 -192&#10;-189 -216 -159 -275 36 -69 71 -62 386 78 151 67 304 135 340 150 36 15 198&#10;86 360 158 162 71 522 230 800 352 659 290 835 368 892 396 38 19 124 108 420&#10;436 653 722 689 762 705 793 35 65 11 151 -54 195 l-37 25 -675 2 c-530 1&#10;-689 -1 -736 -12z"/>
<path d="M6560 5681 c-186 -80 -797 -348 -1680 -736 -658 -288 -1035 -457&#10;-1067 -477 -18 -10 -209 -204 -426 -431 -783 -820 -743 -774 -734 -854 6 -53&#10;47 -110 94 -129 28 -12 165 -14 871 -12 l837 3 62 26 c134 58 132 56 634 599&#10;641 694 749 811 1074 1160 440 475 645 698 678 738 63 80 1 202 -103 202 -22&#10;0 -113 -34 -240 -89z"/>
<path d="M6327 4578 c-118 -128 -327 -357 -464 -508 l-250 -275 70 -78 c38&#10;-43 183 -192 321 -331 230 -231 257 -256 326 -290 41 -20 99 -41 129 -46 31&#10;-6 255 -10 525 -10 438 0 474 2 512 19 91 41 102 90 94 406 -5 192 -6 202 -32&#10;250 -14 28 -46 72 -69 100 -24 27 -170 192 -324 365 -154 174 -342 387 -418&#10;473 -127 145 -141 157 -172 157 -31 0 -49 -17 -248 -232z"/>
</g>
</svg>
